<mxfile host="app.diagrams.net" modified="2021-03-20T03:47:01.425Z" agent="5.0 (Windows NT 10.0; Win64; x64) AppleWebKit/537.36 (KHTML, like Gecko) Chrome/89.0.4389.90 Safari/537.36" etag="sHg24ZxhD1gwPhDv7mhr" version="14.4.8" type="github">
  <diagram id="CXttLjTAoCu7LxISHfBc" name="Page-1">
    <mxGraphModel dx="599" dy="310" grid="1" gridSize="10" guides="1" tooltips="1" connect="1" arrows="1" fold="1" page="1" pageScale="1" pageWidth="827" pageHeight="1169" math="0" shadow="0">
      <root>
        <mxCell id="0" />
        <mxCell id="1" parent="0" />
        <mxCell id="qaXu_HohoRmrBdPHy3pz-1" value="" style="verticalLabelPosition=bottom;verticalAlign=top;html=1;shadow=0;dashed=0;strokeWidth=1;shape=mxgraph.ios.iPhone;bgStyle=bgGreen;fillColor=#aaaaaa;" vertex="1" parent="1">
          <mxGeometry x="10" y="10" width="200" height="400" as="geometry" />
        </mxCell>
        <mxCell id="qaXu_HohoRmrBdPHy3pz-2" value="" style="verticalLabelPosition=bottom;verticalAlign=top;html=1;shadow=0;dashed=0;strokeWidth=1;shape=mxgraph.ios.iBgFlat;strokeColor=#18211b;" vertex="1" parent="1">
          <mxGeometry x="280" y="80" width="200" height="210" as="geometry" />
        </mxCell>
        <mxCell id="qaXu_HohoRmrBdPHy3pz-34" value="" style="rounded=0;whiteSpace=wrap;html=1;strokeColor=#000000;fillColor=#FFFFFF;fontColor=#000000;opacity=70;align=center;" vertex="1" parent="1">
          <mxGeometry x="280" y="30" width="200" height="29" as="geometry" />
        </mxCell>
        <mxCell id="qaXu_HohoRmrBdPHy3pz-35" value="&lt;u style=&quot;font-size: 12px;&quot;&gt;Edit&lt;/u&gt;" style="text;html=1;strokeColor=none;fillColor=none;align=left;verticalAlign=middle;whiteSpace=wrap;rounded=0;opacity=70;fontSize=12;fontColor=#CCCC00;" vertex="1" parent="1">
          <mxGeometry x="290.5" y="34.5" width="39.5" height="20" as="geometry" />
        </mxCell>
        <mxCell id="qaXu_HohoRmrBdPHy3pz-36" value="&lt;u style=&quot;font-size: 16px;&quot;&gt;+&lt;/u&gt;" style="text;html=1;strokeColor=none;fillColor=none;align=right;verticalAlign=middle;whiteSpace=wrap;rounded=0;opacity=70;fontSize=16;fontColor=#CCCC00;" vertex="1" parent="1">
          <mxGeometry x="450.5" y="34.5" width="20" height="20" as="geometry" />
        </mxCell>
        <mxCell id="qaXu_HohoRmrBdPHy3pz-37" value="&lt;font style=&quot;font-size: 10px&quot;&gt;&lt;b&gt;Category&lt;/b&gt;&lt;/font&gt;" style="text;html=1;strokeColor=none;fillColor=none;align=center;verticalAlign=middle;whiteSpace=wrap;rounded=0;fontColor=#000000;opacity=70;" vertex="1" parent="1">
          <mxGeometry x="330" y="34" width="120" height="20" as="geometry" />
        </mxCell>
        <mxCell id="qaXu_HohoRmrBdPHy3pz-42" value="View By Tab" style="rounded=0;whiteSpace=wrap;html=1;" vertex="1" parent="1">
          <mxGeometry x="39" y="440" width="80" height="20" as="geometry" />
        </mxCell>
        <mxCell id="qaXu_HohoRmrBdPHy3pz-43" value="Sub View" style="rounded=0;whiteSpace=wrap;html=1;dashed=1;" vertex="1" parent="1">
          <mxGeometry x="39" y="470" width="80" height="20" as="geometry" />
        </mxCell>
        <mxCell id="qaXu_HohoRmrBdPHy3pz-44" value="Navigate" style="rounded=0;whiteSpace=wrap;html=1;dashed=1;dashPattern=1 1;" vertex="1" parent="1">
          <mxGeometry x="39" y="500" width="80" height="20" as="geometry" />
        </mxCell>
        <mxCell id="qaXu_HohoRmrBdPHy3pz-45" value="Present View" style="rounded=0;whiteSpace=wrap;html=1;dashed=1;dashPattern=1 2;" vertex="1" parent="1">
          <mxGeometry x="39" y="530" width="80" height="20" as="geometry" />
        </mxCell>
        <mxCell id="qaXu_HohoRmrBdPHy3pz-46" value="Table" style="rounded=0;whiteSpace=wrap;html=1;dashed=1;dashPattern=1 4;" vertex="1" parent="1">
          <mxGeometry x="39" y="560" width="80" height="20" as="geometry" />
        </mxCell>
        <mxCell id="qaXu_HohoRmrBdPHy3pz-47" value="Button" style="dashed=0;align=center;fontSize=12;shape=rect;fillColor=#999999;opacity=40;strokeColor=none;fontStyle=1;dashPattern=1 4;" vertex="1" parent="1">
          <mxGeometry x="39" y="590" width="80" height="16" as="geometry" />
        </mxCell>
        <mxCell id="qaXu_HohoRmrBdPHy3pz-48" value="" style="edgeStyle=orthogonalEdgeStyle;rounded=0;orthogonalLoop=1;jettySize=auto;html=1;fontColor=#000000;entryX=0;entryY=0.5;entryDx=0;entryDy=0;" edge="1" parent="1" source="qaXu_HohoRmrBdPHy3pz-49" target="qaXu_HohoRmrBdPHy3pz-50">
          <mxGeometry relative="1" as="geometry">
            <mxPoint x="99" y="630" as="targetPoint" />
          </mxGeometry>
        </mxCell>
        <mxCell id="qaXu_HohoRmrBdPHy3pz-49" value="CL" style="text;html=1;strokeColor=none;fillColor=none;align=left;verticalAlign=middle;whiteSpace=wrap;rounded=0;opacity=70;" vertex="1" parent="1">
          <mxGeometry x="39" y="620" width="30" height="20" as="geometry" />
        </mxCell>
        <mxCell id="qaXu_HohoRmrBdPHy3pz-50" value="Click/Touch" style="text;html=1;strokeColor=none;fillColor=none;align=left;verticalAlign=middle;whiteSpace=wrap;rounded=0;opacity=70;fontColor=#000000;" vertex="1" parent="1">
          <mxGeometry x="119" y="620" width="90" height="20" as="geometry" />
        </mxCell>
        <mxCell id="qaXu_HohoRmrBdPHy3pz-51" value="" style="rounded=0;whiteSpace=wrap;html=1;strokeColor=#000000;fillColor=#FFFFFF;fontColor=#000000;opacity=70;align=center;" vertex="1" parent="1">
          <mxGeometry x="29" y="700.5" width="181" height="29" as="geometry" />
        </mxCell>
        <mxCell id="qaXu_HohoRmrBdPHy3pz-52" value="&lt;u style=&quot;font-size: 10px&quot;&gt;Left&lt;/u&gt;" style="text;html=1;strokeColor=none;fillColor=none;align=center;verticalAlign=middle;whiteSpace=wrap;rounded=0;opacity=70;fontSize=10;fontColor=#CCCC00;" vertex="1" parent="1">
          <mxGeometry x="29" y="705" width="50" height="20" as="geometry" />
        </mxCell>
        <mxCell id="qaXu_HohoRmrBdPHy3pz-53" value="&lt;u&gt;Right&lt;/u&gt;" style="text;html=1;strokeColor=none;fillColor=none;align=center;verticalAlign=middle;whiteSpace=wrap;rounded=0;opacity=70;fontSize=10;fontColor=#CCCC00;" vertex="1" parent="1">
          <mxGeometry x="169" y="705" width="40" height="20" as="geometry" />
        </mxCell>
        <mxCell id="qaXu_HohoRmrBdPHy3pz-54" value="&lt;font style=&quot;font-size: 10px&quot;&gt;&lt;b&gt;Title&lt;/b&gt;&lt;/font&gt;" style="text;html=1;strokeColor=none;fillColor=none;align=center;verticalAlign=middle;whiteSpace=wrap;rounded=0;fontColor=#000000;opacity=70;" vertex="1" parent="1">
          <mxGeometry x="79" y="704.5" width="90" height="20" as="geometry" />
        </mxCell>
        <mxCell id="qaXu_HohoRmrBdPHy3pz-55" value="" style="edgeStyle=orthogonalEdgeStyle;rounded=0;orthogonalLoop=1;jettySize=auto;html=1;fontColor=#000000;entryX=0;entryY=0.5;entryDx=0;entryDy=0;exitX=1;exitY=0.5;exitDx=0;exitDy=0;" edge="1" parent="1" source="qaXu_HohoRmrBdPHy3pz-56" target="qaXu_HohoRmrBdPHy3pz-57">
          <mxGeometry relative="1" as="geometry">
            <mxPoint x="99" y="685" as="targetPoint" />
          </mxGeometry>
        </mxCell>
        <mxCell id="qaXu_HohoRmrBdPHy3pz-56" value="D/D" style="text;html=1;strokeColor=none;fillColor=none;align=left;verticalAlign=middle;whiteSpace=wrap;rounded=0;opacity=70;" vertex="1" parent="1">
          <mxGeometry x="39" y="675" width="30" height="20" as="geometry" />
        </mxCell>
        <mxCell id="qaXu_HohoRmrBdPHy3pz-57" value="Drag/Drop" style="text;html=1;strokeColor=none;fillColor=none;align=left;verticalAlign=middle;whiteSpace=wrap;rounded=0;opacity=70;fontColor=#000000;" vertex="1" parent="1">
          <mxGeometry x="119" y="675" width="90" height="20" as="geometry" />
        </mxCell>
        <mxCell id="qaXu_HohoRmrBdPHy3pz-58" value="" style="rounded=0;whiteSpace=wrap;html=1;dashed=1;dashPattern=1 4;" vertex="1" parent="1">
          <mxGeometry x="290" y="95" width="180" height="180" as="geometry" />
        </mxCell>
        <mxCell id="qaXu_HohoRmrBdPHy3pz-63" value="" style="shape=line;strokeWidth=2;html=1;strokeColor=#DFE1E5;resizeWidth=1" vertex="1" parent="1">
          <mxGeometry x="300.5" y="105" width="160" height="10" as="geometry" />
        </mxCell>
        <mxCell id="qaXu_HohoRmrBdPHy3pz-90" style="edgeStyle=orthogonalEdgeStyle;rounded=0;orthogonalLoop=1;jettySize=auto;html=1;" edge="1" parent="1" source="qaXu_HohoRmrBdPHy3pz-65">
          <mxGeometry relative="1" as="geometry">
            <mxPoint x="600" y="185" as="targetPoint" />
            <Array as="points">
              <mxPoint x="500" y="141" />
              <mxPoint x="500" y="185" />
              <mxPoint x="600" y="185" />
            </Array>
          </mxGeometry>
        </mxCell>
        <mxCell id="qaXu_HohoRmrBdPHy3pz-65" value="Cate 1" style="html=1;fillColor=none;strokeColor=none;fontSize=12;align=left;fontColor=#000000;whiteSpace=wrap;fontStyle=1" vertex="1" parent="1">
          <mxGeometry x="337.5" y="131" width="121.5" height="20" as="geometry" />
        </mxCell>
        <mxCell id="qaXu_HohoRmrBdPHy3pz-91" style="edgeStyle=orthogonalEdgeStyle;rounded=0;orthogonalLoop=1;jettySize=auto;html=1;entryX=0.003;entryY=0.507;entryDx=0;entryDy=0;entryPerimeter=0;" edge="1" parent="1" source="qaXu_HohoRmrBdPHy3pz-68" target="qaXu_HohoRmrBdPHy3pz-78">
          <mxGeometry relative="1" as="geometry">
            <mxPoint x="550" y="186" as="targetPoint" />
          </mxGeometry>
        </mxCell>
        <mxCell id="qaXu_HohoRmrBdPHy3pz-68" value="Cate 2" style="html=1;fillColor=none;strokeColor=none;fontSize=12;align=left;fontColor=#000000;whiteSpace=wrap;fontStyle=1" vertex="1" parent="1">
          <mxGeometry x="337.5" y="176" width="125.5" height="20" as="geometry" />
        </mxCell>
        <mxCell id="qaXu_HohoRmrBdPHy3pz-92" style="edgeStyle=orthogonalEdgeStyle;rounded=0;orthogonalLoop=1;jettySize=auto;html=1;entryX=0.008;entryY=0.513;entryDx=0;entryDy=0;entryPerimeter=0;" edge="1" parent="1" source="qaXu_HohoRmrBdPHy3pz-70" target="qaXu_HohoRmrBdPHy3pz-78">
          <mxGeometry relative="1" as="geometry">
            <mxPoint x="560" y="190" as="targetPoint" />
            <Array as="points">
              <mxPoint x="500" y="231" />
              <mxPoint x="500" y="185" />
              <mxPoint x="600" y="185" />
              <mxPoint x="600" y="188" />
            </Array>
          </mxGeometry>
        </mxCell>
        <mxCell id="qaXu_HohoRmrBdPHy3pz-70" value="Cate 3" style="html=1;fillColor=none;strokeColor=none;fontSize=12;align=left;fontColor=#000000;whiteSpace=wrap;fontStyle=1" vertex="1" parent="1">
          <mxGeometry x="343" y="221" width="120" height="20" as="geometry" />
        </mxCell>
        <mxCell id="qaXu_HohoRmrBdPHy3pz-71" value="" style="shape=line;strokeWidth=2;html=1;strokeColor=#DFE1E5;resizeWidth=1" vertex="1" parent="1">
          <mxGeometry x="300.5" y="255" width="150" height="10" as="geometry" />
        </mxCell>
        <mxCell id="qaXu_HohoRmrBdPHy3pz-72" value="" style="shape=line;strokeWidth=2;html=1;strokeColor=#DFE1E5;resizeWidth=1" vertex="1" parent="1">
          <mxGeometry x="301.5" y="160" width="160" height="10" as="geometry" />
        </mxCell>
        <mxCell id="qaXu_HohoRmrBdPHy3pz-73" value="" style="shape=line;strokeWidth=2;html=1;strokeColor=#DFE1E5;resizeWidth=1" vertex="1" parent="1">
          <mxGeometry x="301.5" y="205" width="160" height="10" as="geometry" />
        </mxCell>
        <mxCell id="qaXu_HohoRmrBdPHy3pz-74" value="" style="outlineConnect=0;fontColor=#232F3E;gradientColor=none;fillColor=#D05C17;strokeColor=none;dashed=0;verticalLabelPosition=bottom;verticalAlign=top;align=center;html=1;fontSize=12;fontStyle=0;aspect=fixed;pointerEvents=1;shape=mxgraph.aws4.container_registry_image;" vertex="1" parent="1">
          <mxGeometry x="301.5" y="122" width="35" height="35" as="geometry" />
        </mxCell>
        <mxCell id="qaXu_HohoRmrBdPHy3pz-76" value="" style="outlineConnect=0;fontColor=#232F3E;gradientColor=none;fillColor=#D05C17;strokeColor=none;dashed=0;verticalLabelPosition=bottom;verticalAlign=top;align=center;html=1;fontSize=12;fontStyle=0;aspect=fixed;pointerEvents=1;shape=mxgraph.aws4.container_registry_image;" vertex="1" parent="1">
          <mxGeometry x="301.5" y="170" width="35" height="35" as="geometry" />
        </mxCell>
        <mxCell id="qaXu_HohoRmrBdPHy3pz-77" value="" style="outlineConnect=0;fontColor=#232F3E;gradientColor=none;fillColor=#D05C17;strokeColor=none;dashed=0;verticalLabelPosition=bottom;verticalAlign=top;align=center;html=1;fontSize=12;fontStyle=0;aspect=fixed;pointerEvents=1;shape=mxgraph.aws4.container_registry_image;" vertex="1" parent="1">
          <mxGeometry x="300.5" y="216.5" width="35" height="35" as="geometry" />
        </mxCell>
        <mxCell id="qaXu_HohoRmrBdPHy3pz-78" value="" style="verticalLabelPosition=bottom;verticalAlign=top;html=1;shadow=0;dashed=0;strokeWidth=1;shape=mxgraph.ios.iBgFlat;strokeColor=#18211b;" vertex="1" parent="1">
          <mxGeometry x="600" y="80" width="200" height="210" as="geometry" />
        </mxCell>
        <mxCell id="qaXu_HohoRmrBdPHy3pz-79" value="" style="rounded=0;whiteSpace=wrap;html=1;dashed=1;dashPattern=1 4;" vertex="1" parent="1">
          <mxGeometry x="610" y="95" width="180" height="180" as="geometry" />
        </mxCell>
        <mxCell id="qaXu_HohoRmrBdPHy3pz-80" value="" style="shape=line;strokeWidth=2;html=1;strokeColor=#DFE1E5;resizeWidth=1" vertex="1" parent="1">
          <mxGeometry x="620.5" y="105" width="160" height="10" as="geometry" />
        </mxCell>
        <mxCell id="qaXu_HohoRmrBdPHy3pz-81" value="Item 1" style="html=1;fillColor=none;strokeColor=none;fontSize=12;align=left;fontColor=#000000;whiteSpace=wrap;fontStyle=1" vertex="1" parent="1">
          <mxGeometry x="660" y="131" width="119" height="20" as="geometry" />
        </mxCell>
        <mxCell id="qaXu_HohoRmrBdPHy3pz-82" value="Item 2" style="html=1;fillColor=none;strokeColor=none;fontSize=12;align=left;fontColor=#000000;whiteSpace=wrap;fontStyle=1" vertex="1" parent="1">
          <mxGeometry x="660" y="176" width="123" height="20" as="geometry" />
        </mxCell>
        <mxCell id="qaXu_HohoRmrBdPHy3pz-83" value="Item 3" style="html=1;fillColor=none;strokeColor=none;fontSize=12;align=left;fontColor=#000000;whiteSpace=wrap;fontStyle=1" vertex="1" parent="1">
          <mxGeometry x="663" y="221" width="120" height="20" as="geometry" />
        </mxCell>
        <mxCell id="qaXu_HohoRmrBdPHy3pz-84" value="" style="shape=line;strokeWidth=2;html=1;strokeColor=#DFE1E5;resizeWidth=1" vertex="1" parent="1">
          <mxGeometry x="620.5" y="255" width="150" height="10" as="geometry" />
        </mxCell>
        <mxCell id="qaXu_HohoRmrBdPHy3pz-85" value="" style="shape=line;strokeWidth=2;html=1;strokeColor=#DFE1E5;resizeWidth=1" vertex="1" parent="1">
          <mxGeometry x="621.5" y="160" width="160" height="10" as="geometry" />
        </mxCell>
        <mxCell id="qaXu_HohoRmrBdPHy3pz-86" value="" style="shape=line;strokeWidth=2;html=1;strokeColor=#DFE1E5;resizeWidth=1" vertex="1" parent="1">
          <mxGeometry x="621.5" y="205" width="160" height="10" as="geometry" />
        </mxCell>
        <mxCell id="qaXu_HohoRmrBdPHy3pz-87" value="" style="outlineConnect=0;fontColor=#232F3E;gradientColor=none;fillColor=#D05C17;strokeColor=none;dashed=0;verticalLabelPosition=bottom;verticalAlign=top;align=center;html=1;fontSize=12;fontStyle=0;aspect=fixed;pointerEvents=1;shape=mxgraph.aws4.container_registry_image;" vertex="1" parent="1">
          <mxGeometry x="621.5" y="122" width="35" height="35" as="geometry" />
        </mxCell>
        <mxCell id="qaXu_HohoRmrBdPHy3pz-88" value="" style="outlineConnect=0;fontColor=#232F3E;gradientColor=none;fillColor=#D05C17;strokeColor=none;dashed=0;verticalLabelPosition=bottom;verticalAlign=top;align=center;html=1;fontSize=12;fontStyle=0;aspect=fixed;pointerEvents=1;shape=mxgraph.aws4.container_registry_image;" vertex="1" parent="1">
          <mxGeometry x="621.5" y="170" width="35" height="35" as="geometry" />
        </mxCell>
        <mxCell id="qaXu_HohoRmrBdPHy3pz-89" value="" style="outlineConnect=0;fontColor=#232F3E;gradientColor=none;fillColor=#D05C17;strokeColor=none;dashed=0;verticalLabelPosition=bottom;verticalAlign=top;align=center;html=1;fontSize=12;fontStyle=0;aspect=fixed;pointerEvents=1;shape=mxgraph.aws4.container_registry_image;" vertex="1" parent="1">
          <mxGeometry x="620.5" y="216.5" width="35" height="35" as="geometry" />
        </mxCell>
        <mxCell id="qaXu_HohoRmrBdPHy3pz-93" value="" style="rounded=0;whiteSpace=wrap;html=1;strokeColor=#000000;fillColor=#FFFFFF;fontColor=#000000;opacity=70;align=center;" vertex="1" parent="1">
          <mxGeometry x="600" y="29.5" width="200" height="29" as="geometry" />
        </mxCell>
        <mxCell id="qaXu_HohoRmrBdPHy3pz-94" value="&lt;u style=&quot;font-size: 12px;&quot;&gt;Edit&lt;/u&gt;" style="text;html=1;strokeColor=none;fillColor=none;align=left;verticalAlign=middle;whiteSpace=wrap;rounded=0;opacity=70;fontSize=12;fontColor=#CCCC00;" vertex="1" parent="1">
          <mxGeometry x="610.5" y="34" width="39.5" height="20" as="geometry" />
        </mxCell>
        <mxCell id="qaXu_HohoRmrBdPHy3pz-95" value="&lt;u style=&quot;font-size: 16px;&quot;&gt;+&lt;/u&gt;" style="text;html=1;strokeColor=none;fillColor=none;align=right;verticalAlign=middle;whiteSpace=wrap;rounded=0;opacity=70;fontSize=16;fontColor=#CCCC00;" vertex="1" parent="1">
          <mxGeometry x="770.5" y="34" width="20" height="20" as="geometry" />
        </mxCell>
        <mxCell id="qaXu_HohoRmrBdPHy3pz-96" value="&lt;font style=&quot;font-size: 10px&quot;&gt;&lt;b&gt;Cate Selected&lt;/b&gt;&lt;/font&gt;" style="text;html=1;strokeColor=none;fillColor=none;align=center;verticalAlign=middle;whiteSpace=wrap;rounded=0;fontColor=#000000;opacity=70;" vertex="1" parent="1">
          <mxGeometry x="650" y="33.5" width="120" height="20" as="geometry" />
        </mxCell>
      </root>
    </mxGraphModel>
  </diagram>
</mxfile>
